Coordinates
version=1
nRows=10
nColumns=40
inDegrees=yes

Units are S.I. units (second, meters, Newtons, ...)
Angles are in degrees.

endheader
time	pelvis_tilt	pelvis_list	pelvis_rotation	pelvis_tx	pelvis_ty	pelvis_tz	hip_flexion_r	hip_adduction_r	hip_rotation_r	knee_angle_r	knee_angle_r_beta	ankle_angle_r	subtalar_angle_r	mtp_angle_r	hip_flexion_l	hip_adduction_l	hip_rotation_l	knee_angle_l	knee_angle_l_beta	ankle_angle_l	subtalar_angle_l	mtp_angle_l	lumbar_extension	lumbar_bending	lumbar_rotation	arm_flex_r	arm_add_r	arm_rot_r	elbow_flex_r	pro_sup_r	wrist_flex_r	wrist_dev_r	arm_flex_l	arm_add_l	arm_rot_l	elbow_flex_l	pro_sup_l	wrist_flex_l	wrist_dev_l
     20.70800000	     -4.16192921	     -4.25838076	      3.39153159	      0.93679192	      0.93395617	      0.35749193	     30.72735583	     -5.70955045	     -7.06457487	     61.36009050	     61.36009050	      5.31739682	    -14.77516183	      2.07805940	     12.76496603	     -5.89646075	     -9.78504439	     18.81958174	     18.81958174	     12.48138304	     -7.49552350	     -2.35180205	    -10.52259544	      3.31009443	      3.14671915	     -6.66374635	    -13.63472424	     -4.55999891	     33.47136909	     46.19474477	      0.00000000	      0.00000000	     20.32627942	    -20.12841211	    -17.14960927	     49.94645697	     47.31744222	      0.00000000	      0.00000000
     20.72100000	     -4.17446551	     -4.39822930	      2.76754782	      0.93554356	      0.93419237	      0.35874531	     31.45575959	     -5.15249606	     -6.81077491	     60.09902853	     60.09902853	      5.33683704	    -14.75152338	      2.20694494	     12.22224590	     -6.12015082	    -10.04041114	     18.45832876	     18.45832876	     12.51476998	     -7.92870863	     -2.37615758	    -10.63333031	      3.43198765	      3.40689314	     -7.40481254	    -13.70600637	     -4.51780689	     33.08866375	     46.19843208	      0.00000000	      0.00000000	     20.82627358	    -20.25621032	    -17.41288449	     50.91394078	     47.35531327	      0.00000000	      0.00000000
     20.73400000	     -4.20306325	     -4.48309487	      2.11758971	      0.93421982	      0.93434186	      0.36007475	     32.08576220	     -4.65426506	     -6.55620748	     58.51836687	     58.51836687	      5.37573170	    -14.56860515	      2.25260942	     11.69293155	     -6.26917187	    -10.24331156	     18.10260462	     18.10260462	     12.46680237	     -8.54508172	     -2.47726389	    -10.81965215	      3.49542634	      3.68946521	     -8.05568501	    -13.77552620	     -4.59382663	     32.85423321	     46.20295245	      0.00000000	      0.00000000	     21.08833271	    -20.36646953	    -17.80310701	     52.52317059	     47.40883934	      0.00000000	      0.00000000
     20.74700000	     -4.31988049	     -4.53782154	      1.47775197	      0.93289025	      0.93430549	      0.36142234	     32.64816335	     -4.22924775	     -6.40169667	     56.58285262	     56.58285262	      5.35710202	    -14.26780091	      1.90320892	     11.23412037	     -6.35945638	    -10.42114219	     17.67153517	     17.67153517	     12.16422684	     -9.32547861	     -3.02240657	    -10.96426337	      3.54541103	      3.51921094	     -8.35147783	    -13.80234892	     -5.00797448	     32.82967695	     46.21528799	      0.00000000	      0.00000000	     20.38248187	    -20.66778660	    -18.65260083	     55.47326780	     47.50506367	      0.00000000	      0.00000000
     20.76000000	     -4.44824674	     -4.64240983	      0.86329375	      0.93162069	      0.93422968	      0.36287934	     33.03712004	     -3.75562298	     -6.33724572	     54.28087239	     54.28087239	      5.52352119	    -13.80337823	      2.00394834	     10.86552581	     -6.57004241	    -10.78235356	     17.43703335	     17.43703335	     12.26871994	     -9.61106094	     -3.04579199	    -11.02574400	      3.70074972	      3.60624671	     -8.62178152	    -13.91708966	     -5.06082275	     32.65539889	     46.22213338	      0.00000000	      0.00000000	     20.61292980	    -20.91976274	    -18.80876883	     56.05987203	     47.52772791	      0.00000000	      0.00000000
     20.77300000	     -4.50218949	     -4.72970772	      0.28128347	      0.93049223	      0.93429147	      0.36435424	     33.11108230	     -3.30165480	     -6.35046857	     51.56265658	     51.56265658	      5.66488162	    -13.21547974	      1.99330579	     10.34858372	     -6.74637895	    -11.13988292	     17.08739538	     17.08739538	     12.30139785	     -9.86443771	     -3.13034617	    -11.20269387	      3.84372565	      3.83577892	     -8.87029224	    -14.05653089	     -5.19918009	     32.42738712	     46.23594493	      0.00000000	      0.00000000	     20.68011551	    -20.91918859	    -18.99921894	     57.33548386	     47.56043898	      0.00000000	      0.00000000
     20.78600000	     -4.67713689	     -4.76239581	     -0.28080318	      0.92940621	      0.93405494	      0.36583889	     33.14454207	     -2.92476347	     -6.41173961	     48.56749356	     48.56749356	      5.86496458	    -12.43172641	      1.97296070	      9.99032987	     -6.86753120	    -11.52369465	     16.79785314	     16.79785314	     12.34912874	    -10.08091773	     -3.25005092	    -11.24376959	      3.95179820	      3.97332157	     -8.95931882	    -14.14738803	     -5.35566367	     32.29570856	     46.24879441	      0.00000000	      0.00000000	     20.63197346	    -21.01278368	    -19.15461905	     58.45549212	     47.58808857	      0.00000000	      0.00000000
     20.79900000	     -4.77920370	     -4.70081422	     -0.80397463	      0.92857451	      0.93378469	      0.36733107	     32.82988654	     -2.65543735	     -6.55558440	     45.15726657	     45.15726657	      5.58070411	    -11.63853536	      0.44690950	      9.48430391	     -6.87655910	    -11.93771042	     16.37951433	     16.37951433	     12.05545112	    -10.35425003	     -4.16704199	    -11.42641623	      3.89927596	      3.39973349	     -8.30017933	    -14.05920303	     -6.30749385	     31.79434636	     46.32144527	      0.00000000	      0.00000000	     18.90623626	    -21.43124672	    -19.98473813	     62.55167277	     47.69683985	      0.00000000	      0.00000000
     20.81200000	     -4.97436440	     -4.69498665	     -1.25912297	      0.92786168	      0.93333757	      0.36880212	     32.43600486	     -2.33003827	     -6.79412684	     41.58258247	     41.58258247	      5.74991679	    -10.46216074	      0.64851237	      9.16030079	     -6.94916080	    -12.25453219	     16.13617389	     16.13617389	     12.20037874	    -10.48257462	     -4.25891193	    -11.37106776	      4.02086844	      3.47555061	     -8.19224356	    -14.16320924	     -6.38647743	     31.67538822	     46.33022715	      0.00000000	      0.00000000	     18.91651638	    -21.41189352	    -20.01905297	     62.94187613	     47.70579121	      0.00000000	      0.00000000
     20.82500000	     -5.19169995	     -4.62354145	     -1.67143791	      0.92738658	      0.93270872	      0.37032940	     31.87101213	     -2.05374266	     -7.06816641	     37.85802994	     37.85802994	      5.88824735	     -9.08365651	      0.94402423	      8.85663738	     -6.95690577	    -12.59313575	     15.90217936	     15.90217936	     12.34304396	    -10.55197094	     -4.37398409	    -11.28182998	      4.07609841	      3.57026952	     -8.00908698	    -14.19481592	     -6.46460926	     31.63787238	     46.33664628	      0.00000000	      0.00000000	     18.84635520	    -21.36608146	    -19.97374781	     63.41082759	     47.70959672	      0.00000000	      0.00000000
